<?xml version="1.0" standalone="no"?>
<!DOCTYPE svg PUBLIC "-//W3C//DTD SVG 20010904//EN"
 "http://www.w3.org/TR/2001/REC-SVG-20010904/DTD/svg10.dtd">
<svg version="1.0" xmlns="http://www.w3.org/2000/svg"
 width="2000.000000pt" height="1250.000000pt" viewBox="0 0 2000.000000 1250.000000"
 preserveAspectRatio="xMidYMid meet">

<g transform="translate(0.000000,1250.000000) scale(0.100000,-0.100000)"
fill="#000000" stroke="none">
<path d="M18065 11633 c-71 -11 -124 -86 -106 -148 l9 -30 1 36 c1 49 39 104
71 104 24 0 25 -3 25 -61 0 -45 5 -67 18 -81 9 -11 17 -28 17 -39 0 -11 10
-24 23 -29 16 -7 22 -18 22 -42 0 -18 0 -33 1 -33 8 0 77 39 101 58 60 44 68
160 17 222 -37 43 -100 57 -199 43z"/>
<path d="M16762 11586 l-24 -13 31 -12 c48 -20 54 -78 10 -101 -10 -6 -28 -27
-38 -48 -17 -33 -18 -43 -7 -83 6 -26 17 -54 25 -63 11 -13 11 -22 3 -41 -18
-38 -62 -26 -62 17 0 10 -7 18 -16 18 -49 0 88 -112 160 -131 103 -28 236 78
236 187 0 54 -55 158 -110 207 -45 40 -126 77 -166 77 -11 -1 -30 -7 -42 -14z"/>
<path d="M10820 11491 c-8 -5 -94 -11 -190 -14 -144 -4 -194 -10 -285 -32
-120 -29 -269 -96 -373 -166 -142 -96 -250 -258 -260 -388 -4 -59 -2 -70 24
-111 46 -74 77 -94 156 -98 106 -6 146 4 261 68 123 68 158 93 397 285 195
157 312 237 350 240 14 1 53 20 88 41 35 21 78 46 95 55 30 16 46 22 135 53
48 16 33 30 -39 36 -37 3 -76 12 -92 23 -21 14 -48 17 -139 17 -62 0 -120 -4
-128 -9z m-522 -127 c3 -23 -18 -37 -43 -28 -16 6 -20 35 -8 48 14 14 48 1 51
-20z m-104 -30 c9 -8 16 -21 16 -28 0 -16 -79 -90 -167 -158 -98 -75 -143
-156 -143 -258 0 -82 -59 -121 -96 -64 -15 23 -16 34 -6 101 17 104 67 196
156 286 120 121 200 162 240 121z m-291 -586 c14 -22 -7 -48 -39 -48 -20 0
-24 5 -24 28 0 16 3 32 7 36 12 11 45 2 56 -16z"/>
<path d="M13005 11450 c-134 -7 -220 -19 -510 -71 -846 -150 -1551 -460 -2064
-907 -131 -114 -141 -124 -250 -248 -330 -375 -515 -773 -537 -1156 -11 -178
46 -418 129 -545 67 -103 207 -225 361 -315 43 -26 46 -30 46 -68 0 -22 -12
-73 -26 -113 -134 -373 -185 -582 -235 -957 -19 -138 -23 -214 -23 -467 -1
-206 2 -305 10 -313 12 -12 66 96 99 199 12 38 32 69 65 102 73 73 113 88 264
105 72 7 134 14 137 14 3 0 9 91 12 203 8 284 45 512 124 767 110 353 265 628
402 708 60 35 154 38 198 6 51 -39 93 -140 93 -229 l0 -41 69 -16 c112 -26
174 -81 235 -208 l31 -65 0 -200 c0 -185 -2 -204 -22 -248 -12 -26 -29 -50
-38 -53 -27 -11 -82 6 -131 39 -52 36 -62 51 -101 156 -21 54 -42 87 -80 127
-28 30 -55 54 -60 54 -10 0 -23 -28 -80 -180 -69 -179 -123 -358 -123 -404 0
-10 22 -2 77 25 121 61 216 49 258 -30 22 -44 11 -73 -53 -142 -65 -71 -117
-102 -192 -119 -30 -6 -73 -19 -94 -28 l-39 -16 7 -111 c9 -159 11 -163 87
-202 92 -48 152 -56 444 -57 l260 -1 55 26 c54 26 213 163 328 282 81 85 181
112 221 61 26 -34 28 -113 3 -166 -25 -54 -342 -373 -400 -402 -26 -13 -103
-37 -172 -54 -162 -40 -194 -52 -259 -96 -87 -59 -124 -50 -261 62 -109 89
-125 56 -137 -278 -9 -270 2 -308 184 -640 83 -151 116 -197 271 -380 132
-155 195 -206 389 -317 128 -72 152 -104 188 -253 28 -119 50 -163 150 -315
52 -79 112 -180 133 -226 52 -113 134 -218 294 -380 96 -96 156 -168 215 -254
44 -66 91 -130 104 -142 35 -31 157 -77 208 -78 50 0 37 -15 143 167 66 113
72 136 73 313 2 151 4 165 34 255 42 126 50 237 26 346 -13 60 -16 102 -12
174 7 108 25 177 72 270 18 36 36 81 40 100 15 73 36 108 67 119 17 6 81 14
142 17 l111 6 73 -46 c78 -49 125 -58 176 -34 21 9 45 7 127 -12 90 -20 109
-21 169 -11 38 6 120 11 183 11 169 0 215 12 330 82 120 74 151 104 172 168 9
27 40 82 70 123 76 103 89 151 83 295 -7 138 2 173 68 287 69 118 89 161 117
250 37 122 53 236 38 274 -19 45 -167 171 -262 222 -129 70 -252 154 -297 204
-24 25 -63 88 -88 139 -43 92 -46 96 -99 121 -30 14 -103 34 -163 45 -59 11
-213 47 -342 80 -316 82 -405 98 -459 82 -62 -19 -82 -46 -79 -106 l3 -50 -78
-42 c-114 -62 -160 -75 -274 -81 -114 -6 -119 -4 -160 60 -14 22 -39 44 -61
53 -20 9 -68 31 -107 50 -138 67 -227 66 -362 -1 -88 -45 -114 -45 -149 0 -30
39 -30 52 -3 257 16 120 7 166 -36 188 -42 20 -150 19 -204 -3 -43 -18 -142
-80 -194 -124 -52 -42 -80 -26 -137 82 -38 73 -35 100 21 197 32 54 45 92 63
185 21 108 26 119 59 150 45 41 71 42 146 3 76 -38 123 -93 144 -169 10 -35
30 -75 48 -95 32 -37 118 -76 169 -76 44 0 79 37 89 95 8 42 18 58 74 112 62
60 67 63 114 63 37 0 70 -10 133 -40 118 -58 128 -76 88 -166 -19 -44 -42
-114 -83 -259 -14 -49 -12 -85 5 -85 5 0 29 16 55 35 46 35 65 38 65 8 0 -28
40 -71 95 -102 110 -62 126 -31 59 110 -45 93 -46 98 -36 146 18 80 52 163 82
196 40 45 80 40 219 -27 63 -30 132 -58 153 -61 51 -9 90 -43 145 -127 24 -37
56 -77 70 -87 41 -33 162 -54 272 -49 83 4 111 11 200 47 124 49 235 112 258
147 24 37 12 179 -24 286 -33 97 -98 214 -133 240 -19 14 -55 21 -135 28 -129
10 -249 35 -270 57 -8 8 -15 22 -15 30 0 23 -57 109 -92 138 -36 30 -61 31
-164 4 -62 -17 -98 -20 -169 -16 -125 6 -159 22 -189 90 -13 30 -28 57 -34 61
-6 3 -43 9 -84 12 -64 5 -84 2 -166 -25 -139 -47 -228 -39 -287 25 -33 36 -32
71 5 116 50 61 98 67 329 42 39 -5 56 -2 62 7 14 22 11 27 -36 55 -25 14 -45
32 -45 40 0 18 -6 18 82 -10 104 -34 184 -42 231 -23 45 19 47 41 11 98 -68
108 -165 179 -244 179 -49 0 -365 -35 -515 -56 -82 -12 -147 -15 -259 -10
-162 7 -196 1 -260 -42 -110 -75 -43 -156 148 -177 53 -6 63 -11 112 -59 92
-89 73 -116 -84 -126 -59 -4 -120 -12 -136 -19 -44 -18 -283 -37 -304 -25 -9
6 -33 42 -53 80 -20 38 -50 83 -68 100 -48 48 -150 92 -267 115 l-106 21 -47
-23 c-61 -31 -148 -31 -207 -1 -133 68 -162 251 -58 356 42 42 82 59 152 65
l62 6 -32 50 c-28 43 -41 53 -87 67 -63 21 -91 43 -91 73 0 45 50 69 233 110
87 20 120 31 127 46 7 12 8 68 4 152 -6 110 -4 139 8 163 9 16 24 45 34 64 13
25 18 57 19 114 l0 78 95 56 c52 30 131 75 175 100 278 156 637 286 1040 376
64 15 170 32 345 56 185 25 806 23 797 -3 -2 -6 -96 -59 -209 -117 -266 -136
-294 -155 -381 -259 -158 -188 -186 -273 -130 -393 17 -35 50 -83 74 -108 67
-69 272 -239 347 -288 139 -91 384 -201 569 -257 142 -44 219 -46 348 -10 49
14 104 25 121 25 51 0 160 -62 327 -188 234 -176 324 -214 378 -156 23 25 24
30 23 172 -1 151 -20 298 -67 502 -19 83 -22 127 -23 361 -1 147 -4 271 -8
277 -8 14 -164 96 -318 167 -71 32 -128 65 -128 72 0 7 2 13 5 13 10 0 236
-91 330 -133 414 -185 815 -460 1138 -781 161 -160 201 -205 322 -356 288
-361 514 -779 653 -1210 83 -255 109 -364 146 -600 65 -420 70 -657 26 -1095
-15 -147 -74 -448 -116 -590 -79 -265 -141 -427 -248 -650 -259 -536 -642
-1012 -1106 -1376 -52 -41 -105 -81 -117 -89 -11 -8 -52 -37 -90 -64 -104 -74
-303 -191 -453 -266 -140 -70 -162 -81 -270 -125 -60 -25 -87 -36 -195 -79
-22 -9 -78 -27 -125 -41 -47 -14 -98 -29 -115 -34 -59 -19 -240 -62 -295 -71
-30 -5 -75 -13 -100 -19 -25 -5 -88 -14 -140 -20 -52 -6 -135 -16 -185 -22
-49 -5 -202 -10 -340 -10 -526 -1 -941 80 -1455 282 -348 136 -722 355 -1020
598 -117 95 -425 396 -510 499 -98 118 -171 215 -226 300 -52 80 -55 82 -76
68 -20 -13 -30 -13 -83 0 -172 41 -593 109 -775 125 -178 15 -572 6 -680 -15
-285 -58 -376 -82 -560 -143 -249 -84 -576 -232 -828 -375 -57 -32 -105 -58
-107 -58 -8 0 -188 -115 -385 -246 -223 -148 -399 -275 -731 -525 -107 -80
-219 -164 -249 -186 -30 -23 -120 -91 -200 -152 -369 -283 -837 -616 -1015
-724 -132 -79 -324 -187 -395 -222 l-76 -37 -39 25 c-99 64 -110 75 -124 113
-8 21 -23 51 -34 66 -15 20 -19 36 -14 67 3 23 4 41 4 41 -1 0 -51 4 -112 10
-193 16 -388 79 -760 245 -256 114 -333 144 -433 169 -88 22 -109 20 -168 -14
-71 -40 -104 -105 -104 -204 0 -102 -10 -115 -110 -151 -47 -17 -99 -39 -117
-48 -45 -24 -72 -21 -123 13 -39 26 -54 30 -115 30 -64 0 -73 -3 -103 -29 -28
-26 -32 -36 -32 -79 0 -56 -19 -109 -48 -135 -24 -22 -63 -33 -174 -52 -99
-16 -126 -28 -221 -97 -50 -37 -74 -49 -92 -46 -39 8 -29 -4 33 -40 31 -18
104 -62 162 -97 136 -83 131 -80 295 -163 297 -149 543 -245 880 -341 300 -86
508 -132 811 -180 413 -65 413 -65 894 -65 482 0 594 8 897 69 535 107 661
164 1473 660 372 227 491 297 714 419 493 270 1031 483 1441 569 389 82 377
81 820 81 368 0 411 -1 540 -22 343 -56 618 -130 995 -267 669 -244 1250 -391
1850 -470 25 -3 86 -13 135 -22 117 -20 128 -32 123 -128 l-3 -70 40 -8 c22
-5 50 -11 62 -13 12 -2 61 -39 108 -81 91 -83 101 -105 64 -139 -18 -16 -34
-19 -114 -16 -51 1 -126 7 -166 13 -41 6 -90 13 -109 16 l-35 5 30 -19 c59
-37 313 -144 386 -163 39 -10 72 -22 134 -50 35 -16 127 -48 220 -75 50 -15
104 -31 120 -37 55 -18 265 -71 435 -109 172 -39 369 -75 595 -109 339 -52
1013 -54 1360 -4 196 27 474 90 655 146 242 76 287 95 580 244 50 25 213 137
295 202 294 233 472 562 474 876 2 165 -45 291 -155 418 -76 87 -143 129 -241
147 -64 12 -155 3 -213 -22 -14 -6 -46 -18 -71 -27 -105 -37 -235 -140 -523
-414 -87 -83 -170 -162 -185 -175 -14 -13 -48 -45 -76 -70 -158 -149 -474
-394 -589 -457 -67 -36 -68 -37 -101 -21 -66 31 -69 44 -61 265 3 108 9 209
12 223 5 21 -3 36 -40 78 -37 42 -46 59 -46 89 0 20 4 42 8 48 7 10 145 94
155 94 14 0 380 215 487 286 152 101 338 248 443 352 199 195 413 457 488 597
17 31 45 79 64 105 18 26 48 74 65 106 113 215 174 334 186 369 8 22 36 85 63
140 145 302 279 852 325 1335 8 85 20 202 26 260 17 181 12 490 -15 785 -43
474 -96 776 -209 1182 -65 235 -221 636 -256 658 -5 3 -19 27 -30 53 -21 47
-61 117 -148 262 -25 41 -52 87 -59 102 -22 42 -182 263 -253 347 -25 30 -52
65 -60 77 -34 51 -210 246 -314 349 -202 199 -415 370 -726 583 -131 90 -315
198 -515 302 -77 40 -147 77 -155 81 -30 17 -278 122 -380 161 -469 179 -1013
307 -1519 358 -111 11 -853 11 -1066 0z m915 -80 c231 -18 625 -73 645 -91 13
-13 -33 -11 -165 5 -144 19 -493 36 -710 36 -159 0 -695 -26 -708 -34 -4 -2
-65 -9 -137 -16 -71 -6 -150 -16 -175 -21 -25 -6 -90 -17 -145 -24 -223 -32
-496 -92 -740 -163 -165 -47 -162 -47 -149 -33 25 27 305 130 514 189 251 71
574 128 855 151 142 12 766 12 915 1z m717 -106 c-3 -3 -12 -4 -19 -1 -8 3 -5
6 6 6 11 1 17 -2 13 -5z m-3275 -601 c42 -40 37 -93 -16 -152 -11 -13 -89 -74
-172 -137 -339 -253 -571 -553 -709 -913 -56 -148 -103 -201 -179 -201 -32 0
-46 7 -81 43 -33 33 -44 52 -49 88 -21 143 104 473 277 729 226 337 560 567
826 569 68 1 77 -1 103 -26z m4421 -245 c604 -257 1045 -613 1375 -1107 68
-100 82 -129 82 -161 0 -56 -39 -100 -88 -100 -67 0 -106 39 -233 227 -38 56
-105 147 -149 202 -206 256 -546 502 -1030 743 -167 84 -230 135 -230 187 0
21 9 41 25 57 23 22 31 25 68 19 23 -4 104 -34 180 -67z m-5588 -1314 c45 -21
68 -59 67 -110 -1 -127 -156 -169 -222 -61 -26 42 -25 86 3 128 39 58 90 73
152 43z m7134 -118 c54 -28 66 -97 25 -145 -22 -26 -33 -31 -70 -31 -59 0 -94
32 -94 87 0 80 69 125 139 89z m599 -1321 c239 -881 188 -1738 -142 -2394 -87
-172 -216 -361 -216 -315 0 3 15 36 34 73 188 368 299 776 357 1311 14 123 14
744 0 880 -14 147 -49 407 -61 455 -12 49 -13 92 -2 80 5 -6 18 -46 30 -90z
m-8743 -3260 c76 -39 116 -89 122 -152 4 -39 1 -53 -18 -77 -39 -49 -71 -56
-227 -49 -123 5 -150 3 -238 -17 -268 -61 -491 -171 -939 -465 -189 -124 -259
-143 -316 -86 -34 34 -35 51 -10 106 47 105 422 386 723 543 342 178 516 233
724 229 111 -3 125 -5 179 -32z m1859 -819 c105 -109 196 -189 309 -274 93
-69 237 -165 292 -196 17 -9 48 -27 70 -40 78 -46 351 -184 425 -215 41 -17
88 -38 103 -46 16 -8 33 -15 38 -15 5 0 28 -9 52 -19 23 -10 56 -24 72 -29 17
-6 62 -22 100 -36 102 -38 200 -71 285 -96 41 -12 102 -30 135 -40 33 -10 76
-21 95 -25 19 -4 58 -13 85 -20 80 -22 218 -54 245 -57 51 -6 13 -23 -45 -20
-129 6 -593 80 -634 101 -9 4 -34 11 -56 14 -50 8 -310 92 -435 142 -219 86
-437 204 -635 344 -181 127 -348 278 -461 416 -27 33 -52 62 -55 65 -12 11
-79 113 -79 121 0 18 14 7 94 -75z m5761 59 c32 -31 31 -51 -3 -106 -32 -49
-188 -202 -279 -272 -57 -44 -220 -149 -275 -178 -289 -151 -390 -199 -421
-199 -55 0 -87 51 -63 99 27 51 93 98 247 177 230 117 470 284 584 404 96 101
161 125 210 75z m-9430 -119 c60 -26 85 -94 57 -162 -29 -69 -126 -86 -186
-33 -64 56 -56 145 16 189 39 24 67 25 113 6z m8303 -612 c28 -32 28 -66 -1
-100 -17 -20 -33 -27 -57 -27 -24 0 -40 7 -57 27 -27 32 -29 62 -7 94 33 47
82 49 122 6z m2588 -62 c51 -26 94 -75 94 -107 0 -13 -10 -36 -23 -51 -21 -24
-34 -28 -138 -39 -135 -15 -171 -25 -264 -73 -49 -26 -95 -62 -156 -123 -97
-98 -113 -109 -164 -109 -41 0 -85 36 -85 69 0 22 31 86 67 140 57 85 186 198
276 242 48 23 153 65 182 73 47 12 170 -1 211 -22z m-12182 -102 c40 -15 35
-57 -11 -101 -95 -90 -389 -311 -551 -414 -52 -33 -109 -70 -127 -81 -135 -88
-270 -137 -290 -105 -28 46 87 166 324 336 100 72 234 169 299 217 184 137
280 177 356 148z m11398 -417 c25 -23 23 -68 -4 -87 -31 -22 -54 -20 -78 6
-24 26 -25 41 -4 73 19 29 59 33 86 8z m-14372 -109 c36 -8 85 -19 109 -24 24
-6 57 -17 74 -25 17 -8 36 -15 44 -15 23 0 93 -71 93 -95 0 -44 -32 -59 -128
-56 -147 3 -288 53 -372 131 -32 30 -37 55 -17 81 24 31 65 31 197 3z m-991
-54 c-2 -35 2 -55 14 -68 9 -10 17 -26 17 -35 0 -8 9 -19 20 -22 23 -7 26 -37
6 -54 -17 -14 -43 -5 -51 17 -2 10 -19 23 -36 31 -36 16 -52 52 -46 104 6 44
31 77 59 77 17 0 19 -6 17 -50z m1441 -60 c25 -25 25 -41 0 -68 -32 -34 -66
-28 -89 16 -28 53 45 96 89 52z m1110 -301 c-55 -48 -406 -239 -438 -239 -4 0
-27 -9 -50 -20 -22 -11 -46 -20 -53 -20 -6 0 -25 -6 -42 -14 -92 -40 -312 -96
-482 -122 -164 -26 -504 -26 -655 0 -160 27 -350 79 -337 92 2 2 75 -6 163
-17 242 -30 431 -32 664 -4 182 22 280 38 390 66 25 6 70 17 100 25 90 22 184
49 195 56 6 3 33 13 60 22 128 40 274 98 415 164 102 49 116 51 70 11z"/>
<path d="M18606 11425 c-67 -23 -109 -65 -131 -131 -11 -32 -26 -63 -32 -67
-21 -13 -16 -75 7 -87 11 -6 20 -16 20 -23 0 -24 43 -145 61 -168 l18 -24 10
28 c6 15 16 28 23 28 26 2 53 -3 66 -13 29 -25 -1 -98 -40 -98 -26 0 -22 -12
20 -67 95 -123 185 -276 209 -357 5 -17 14 -31 20 -33 14 -5 24 26 68 211 35
146 38 170 38 305 1 157 -11 216 -67 333 -35 73 -106 143 -159 156 -78 20 -92
21 -131 7z m116 -22 c32 -29 22 -61 -38 -119 l-57 -54 7 -89 c7 -88 7 -89 -20
-110 -41 -33 -65 -24 -93 34 -33 68 -34 172 -3 231 24 47 75 102 106 114 34
14 78 11 98 -7z"/>
<path d="M18040 11360 c20 -13 33 -13 25 0 -3 6 -14 10 -23 10 -15 0 -15 -2
-2 -10z"/>
<path d="M17455 11294 c-105 -28 -157 -74 -190 -170 -30 -89 -26 -145 19 -239
33 -67 57 -97 160 -200 100 -101 265 -243 395 -340 14 -10 64 -51 110 -90 46
-38 93 -77 105 -85 37 -25 188 -161 304 -274 75 -74 112 -117 112 -132 0 -12
10 -28 23 -36 40 -27 246 -287 267 -338 17 -43 62 -109 74 -110 4 0 5 12 1 28
-9 36 -12 70 -15 177 -1 50 -9 105 -16 124 -8 18 -14 50 -14 70 0 67 -28 174
-49 191 -20 14 -39 73 -56 165 -4 22 -10 45 -14 50 -5 6 -27 64 -50 130 -72
206 -169 395 -289 565 -158 224 -400 419 -611 491 -54 19 -226 33 -266 23z
m46 -54 c26 -14 24 -51 -6 -110 -43 -85 -30 -143 57 -249 66 -82 78 -103 78
-143 0 -40 -27 -68 -64 -68 -32 0 -106 42 -153 87 -109 105 -134 296 -55 422
36 57 99 84 143 61z m220 -570 c22 -12 26 -59 7 -78 -7 -7 -27 -12 -45 -12
-26 0 -36 5 -42 23 -20 52 29 94 80 67z"/>
<path d="M9538 10509 c-36 -20 -60 -41 -66 -58 -16 -40 -24 -119 -14 -125 5
-3 13 18 16 47 13 97 72 155 122 122 33 -21 30 -55 -6 -90 -33 -32 -39 -76
-18 -135 10 -29 9 -35 -8 -47 -10 -8 -27 -12 -36 -9 -28 7 -21 -8 11 -27 47
-27 117 -22 173 13 112 70 117 221 12 308 -52 43 -107 43 -186 1z"/>
<path d="M17297 7853 c-4 -6 -19 -57 -36 -114 -97 -343 -172 -570 -222 -676
-45 -95 -104 -162 -229 -261 -113 -89 -141 -142 -147 -274 -5 -95 1 -136 57
-368 28 -118 28 -241 0 -358 -29 -124 -25 -215 12 -292 15 -30 69 -111 120
-180 52 -69 105 -148 120 -175 20 -40 63 -158 84 -232 7 -27 21 -9 68 95 174
377 273 715 338 1152 20 139 23 192 23 505 0 313 -3 366 -23 505 -36 245 -69
401 -128 605 -18 64 -28 82 -37 68z"/>
<path d="M18830 3973 c-45 -8 -40 -18 8 -18 36 0 56 -6 82 -27 l34 -27 24 26
c13 14 21 27 18 30 -17 17 -110 26 -166 16z"/>
<path d="M18729 3921 c-58 -39 -123 -138 -140 -214 -27 -123 39 -246 172 -325
37 -22 56 -26 124 -26 76 0 83 2 137 36 71 46 133 123 153 190 19 65 19 83 -2
144 -21 65 -97 175 -102 148 -9 -49 -63 -70 -96 -37 -12 11 -19 13 -24 5 -4
-6 -26 -18 -50 -26 -88 -32 -139 -95 -144 -180 -6 -94 -49 -120 -109 -67 -30
26 -33 35 -32 83 1 94 55 205 131 266 48 40 40 41 -18 3z"/>
</g>
</svg>
